<?xml version="1.0" encoding="UTF-8"?> <svg xmlns="http://www.w3.org/2000/svg" xmlns:xlink="http://www.w3.org/1999/xlink" xmlns:svgjs="http://svgjs.com/svgjs" width="512" height="512" x="0" y="0" viewBox="0 0 74 74" style="enable-background:new 0 0 512 512" xml:space="preserve" class=""> <g> <path xmlns="http://www.w3.org/2000/svg" d="m45.5 54.57a1 1 0 0 1 -.643-1.767c8.579-7.169 5.165-25.269 5.13-25.451-1.7-9.541-9.873-15.336-13.218-17.344v4.572a1 1 0 0 1 -1 1h-1.814l-11.742 12.62a.194.194 0 0 0 0 .277l3.276 3.123a.215.215 0 0 0 .263 0c1.655-1.3 5.931-4.154 9.394-2.12a1 1 0 0 1 .369 1.346l-8.14 14.72a3.144 3.144 0 0 0 -.07 2.85 16.782 16.782 0 0 0 3.188 4.455 1 1 0 1 1 -1.387 1.442 18.907 18.907 0 0 1 -3.6-5.03 5.157 5.157 0 0 1 .121-4.684l7.592-13.728c-2.384-.506-5.317 1.6-6.248 2.337a2.233 2.233 0 0 1 -2.839-.125l-3.3-3.136a2.189 2.189 0 0 1 -.086-3.082l12.041-12.945a1 1 0 0 1 .733-.319h1.25v-5.271a1 1 0 0 1 1.431-.9c.547.262 13.43 6.561 15.753 19.576.151.775 3.661 19.435-5.812 27.353a1 1 0 0 1 -.642.231z" fill="#6666ff" data-original="#000000" style=""></path> <path xmlns="http://www.w3.org/2000/svg" d="m52.07 66.69h-7.62a1 1 0 0 1 0-2h6.62v-6.06a4.064 4.064 0 0 0 -4.06-4.06h-19.83a4.07 4.07 0 0 0 -4.07 4.06v6.06h4.44a1 1 0 0 1 0 2h-5.44a1 1 0 0 1 -1-1v-7.06a6.072 6.072 0 0 1 6.07-6.06h19.83a6.067 6.067 0 0 1 6.06 6.06v7.06a1 1 0 0 1 -1 1z" fill="#6666ff" data-original="#000000" style=""></path> <path xmlns="http://www.w3.org/2000/svg" d="m37.45 66.69h-2.9a1 1 0 0 1 0-2h2.9a1 1 0 0 1 0 2z" fill="#6666ff" data-original="#000000" style=""></path> <path xmlns="http://www.w3.org/2000/svg" d="m35.1 21.792a1 1 0 0 1 -.48-1.878l.674-.367a1 1 0 0 1 .957 1.756l-.674.367a.993.993 0 0 1 -.477.122z" fill="#6666ff" data-original="#000000" style=""></path> <path xmlns="http://www.w3.org/2000/svg" d="m60.524 59.527a1 1 0 0 1 -.637-1.771c17.306-14.286 7.348-29.393 6.913-30.029a1 1 0 1 1 1.654-1.127c.117.17 11.448 17.228-7.294 32.7a1 1 0 0 1 -.636.227z" fill="#6666ff" data-original="#000000" style=""></path> <path xmlns="http://www.w3.org/2000/svg" d="m66.185 59.527h-5.662a1 1 0 0 1 -1-1v-5.878a1 1 0 0 1 2 0v4.878h4.662a1 1 0 0 1 0 2z" fill="#6666ff" data-original="#000000" style=""></path> <path xmlns="http://www.w3.org/2000/svg" d="m6.372 47.092a1 1 0 0 1 -.826-.435c-.117-.171-11.448-17.228 7.294-32.7a1 1 0 1 1 1.273 1.543c-7.302 6.027-10.679 12.917-10.039 20.476a21.824 21.824 0 0 0 3.126 9.551 1 1 0 0 1 -.824 1.565z" fill="#6666ff" data-original="#000000" style=""></path> <path xmlns="http://www.w3.org/2000/svg" d="m13.477 21.606a1 1 0 0 1 -1-1v-4.878h-4.662a1 1 0 1 1 0-2h5.662a1 1 0 0 1 1 1v5.878a1 1 0 0 1 -1 1z" fill="#6666ff" data-original="#000000" style=""></path> <path xmlns="http://www.w3.org/2000/svg" d="m65.762 21.425a1 1 0 0 1 -.7-.291l-5.974-5.943a1 1 0 1 1 1.41-1.418l5.974 5.943a1 1 0 0 1 -.7 1.709z" fill="#6666ff" data-original="#000000" style=""></path> <path xmlns="http://www.w3.org/2000/svg" d="m59.788 21.425a1 1 0 0 1 -.7-1.709l5.974-5.943a1 1 0 0 1 1.41 1.418l-5.974 5.943a1 1 0 0 1 -.71.291z" fill="#6666ff" data-original="#000000" style=""></path> <path xmlns="http://www.w3.org/2000/svg" d="m12.17 59.65a4.431 4.431 0 1 1 4.43-4.43 4.435 4.435 0 0 1 -4.43 4.43zm0-6.861a2.431 2.431 0 1 0 2.43 2.431 2.434 2.434 0 0 0 -2.43-2.431z" fill="#6666ff" data-original="#000000" style=""></path> </g> </svg> 