<?xml version="1.0" encoding="UTF-8"?> <!-- Generator: Adobe Illustrator 25.2.0, SVG Export Plug-In . SVG Version: 6.00 Build 0) --> <svg xmlns="http://www.w3.org/2000/svg" xmlns:xlink="http://www.w3.org/1999/xlink" id="Слой_1" x="0px" y="0px" viewBox="0 0 1000 1000" style="enable-background:new 0 0 1000 1000;" xml:space="preserve"> <style type="text/css"> .st0{fill:#FFFFFF;} </style> <path class="st0" d="M73.53,478.71H39.36l-2.17,12.32l18.65,60.62l26.05-42.28L73.53,478.71z M234.98,478.71l-42.81,68.78 l-0.05-0.17l-20.95,34.05h36.13l59.68-90.34l2.17-12.32H234.98z M173.84,478.71h-39.16L92.3,547.49l-0.02-0.06l-20.27,33.95h34.32 l42.31-70.84l8.51,34.34l24.04-38.6L173.84,478.71z"></path> <path class="st0" d="M236.93,569.26l57.88-90.55h41.34l57.88,90.55v12.11H360.1l-9.36-16.43h-70.5l-9.36,16.43h-33.95V569.26z M335.07,537.64l-19.58-34.09l-19.58,34.09H335.07z"></path> <path class="st0" d="M404.93,478.71h34.82v75.15h77.03v27.52H404.93V478.71z"></path> <path class="st0" d="M527.66,478.71h122.29l12.62,11.91v30.59l-8.49,8.21l12.4,11.91v28.13l-12.62,11.91H527.66V478.71z M627.75,518.75v-14.37h-65.28v14.37H627.75z M631.67,555.71V540.1h-69.2v15.61H631.67z"></path> <path class="st0" d="M682.81,569.47v-90.76h126.86v25.67h-92.04v14.37h85.95v21.35h-85.95v15.61h92.04v25.67H695.43L682.81,569.47z"></path> <path class="st0" d="M827.09,478.71h122.29L962,490.62v40.45l-12.62,11.91h-28.07l35.47,27.1v11.29h-37.21l-44.39-38.4H861.9v38.4 h-34.82V478.71z M927.18,518.75v-12.53H861.9v12.53H927.18z"></path> </svg> 